<svg width="26" height="26" viewBox="0 0 26 26" fill="none" xmlns="http://www.w3.org/2000/svg">
<path d="M4.86234 25.0714H11.7507C12.1805 25.0714 12.5928 24.8982 12.8967 24.5899C13.2007 24.2816 13.3714 23.8634 13.3714 23.4274C13.3714 22.9914 13.2007 22.5732 12.8967 22.2649C12.5928 21.9566 12.1805 21.7834 11.7507 21.7834H4.86234C4.43248 21.7834 4.02023 21.6102 3.71628 21.3018C3.41232 20.9935 3.24156 20.5754 3.24156 20.1393V4.93208C3.24156 4.49606 3.41232 4.0779 3.71628 3.76958C4.02023 3.46127 4.43248 3.28806 4.86234 3.28806H17.4234C17.8532 3.28806 18.2655 3.46127 18.5695 3.76958C18.8734 4.0779 19.0442 4.49606 19.0442 4.93208V12.7412C19.0442 13.1772 19.2149 13.5954 19.5189 13.9037C19.8228 14.212 20.2351 14.3852 20.6649 14.3852C21.0948 14.3852 21.5071 14.212 21.811 13.9037C22.115 13.5954 22.2857 13.1772 22.2857 12.7412V4.93208C22.2857 3.62401 21.7734 2.36952 20.8616 1.44457C19.9497 0.519629 18.713 0 17.4234 0H4.86234C3.57277 0 2.33601 0.519629 1.42415 1.44457C0.512281 2.36952 0 3.62401 0 4.93208V20.1393C0 21.4474 0.512281 22.7019 1.42415 23.6269C2.33601 24.5518 3.57277 25.0714 4.86234 25.0714Z" fill="#4B4A48"/>
<path d="M8.11494 10.2143H14.1708C14.5991 10.2143 15.0099 10.0675 15.3128 9.80632C15.6156 9.54511 15.7858 9.19083 15.7858 8.82142C15.7858 8.45201 15.6156 8.09773 15.3128 7.83652C15.0099 7.57531 14.5991 7.42856 14.1708 7.42856H8.11494C7.68664 7.42856 7.27588 7.57531 6.97303 7.83652C6.67017 8.09773 6.50003 8.45201 6.50003 8.82142C6.50003 9.19083 6.67017 9.54511 6.97303 9.80632C7.27588 10.0675 7.68664 10.2143 8.11494 10.2143Z" fill="#4B4A48"/>
<path d="M8.11494 16.7143H14.1708C14.5991 16.7143 15.0099 16.5675 15.3128 16.3063C15.6156 16.0451 15.7858 15.6908 15.7858 15.3214C15.7858 14.952 15.6156 14.5977 15.3128 14.3365C15.0099 14.0753 14.5991 13.9286 14.1708 13.9286H8.11494C7.68664 13.9286 7.27588 14.0753 6.97303 14.3365C6.67017 14.5977 6.50003 14.952 6.50003 15.3214C6.50003 15.6908 6.67017 16.0451 6.97303 16.3063C7.27588 16.5675 7.68664 16.7143 8.11494 16.7143Z" fill="#4B4A48"/>
<path d="M23.6786 17.6471C23.2187 17.6468 22.7692 17.7938 22.3869 18.0696C22.0046 18.3454 21.7068 18.7375 21.5313 19.1962C21.5166 19.2329 21.4923 19.2642 21.4614 19.2861C21.4304 19.3081 21.3942 19.3198 21.3572 19.3198C21.3201 19.3198 21.2839 19.3081 21.2529 19.2861C21.222 19.2642 21.1977 19.2329 21.1831 19.1962C20.9786 18.6591 20.6077 18.2154 20.1337 17.9408C19.6597 17.6662 19.112 17.5778 18.5842 17.6907C18.0565 17.8036 17.5815 18.1108 17.2404 18.5598C16.8994 19.0089 16.7134 19.5718 16.7143 20.1524C16.7143 21.9645 19.1402 24.4279 20.4866 25.6555C20.7298 25.8779 21.0383 26 21.3572 26C21.676 26 21.9845 25.8779 22.2277 25.6555C23.5741 24.4279 26 21.9603 26 20.1524C26 19.4879 25.7554 18.8507 25.3201 18.3809C24.8847 17.9111 24.2943 17.6471 23.6786 17.6471Z" fill="#4B4A48"/>
</svg>
