<svg width="26" height="27" viewBox="0 0 26 27" fill="none" xmlns="http://www.w3.org/2000/svg">
<path d="M26 25.7727C26 26.4505 25.3533 27 24.5556 27C23.7578 27 23.1111 26.4505 23.1111 25.7727C23.1111 21.0281 18.5842 17.1818 13 17.1818C7.41579 17.1818 2.88889 21.0281 2.88889 25.7727C2.88889 26.4505 2.24219 27 1.44444 27C0.6467 27 0 26.4505 0 25.7727C0 19.6725 5.8203 14.7273 13 14.7273C20.1797 14.7273 26 19.6725 26 25.7727ZM13 13.5C8.6124 13.5 5.05556 10.4779 5.05556 6.75C5.05556 3.02208 8.6124 0 13 0C17.3876 0 20.9444 3.02208 20.9444 6.75C20.9444 10.4779 17.3876 13.5 13 13.5ZM13 11.0455C15.7921 11.0455 18.0556 9.12231 18.0556 6.75C18.0556 4.37769 15.7921 2.45455 13 2.45455C10.2079 2.45455 7.94444 4.37769 7.94444 6.75C7.94444 9.12231 10.2079 11.0455 13 11.0455Z" fill="#4B4A48"/>
</svg>
