<svg width="26" height="25" viewBox="0 0 26 25" fill="none" xmlns="http://www.w3.org/2000/svg">
<path d="M15.9473 25H22.5497C23.2759 25 23.8701 24.4443 23.8701 23.765V11.7243H24.6624C25.2236 11.7243 25.7188 11.4156 25.9168 10.9216C26.1149 10.4276 25.9499 9.90275 25.5207 9.56314L13.8346 0.301019C13.3394 -0.10034 12.6132 -0.10034 12.118 0.301019L0.464913 9.56314C0.0357628 9.90275 -0.0962838 10.4585 0.0687741 10.9216C0.233832 11.3847 0.762018 11.7243 1.2902 11.7243H2.08248V23.765C2.08248 24.4443 2.67669 25 3.40294 25H10.0053C10.7315 25 11.3257 24.4443 11.3257 23.765V16.3554H14.6269V23.765C14.6269 24.4443 15.2211 25 15.9473 25ZM10.0053 13.8855C9.279 13.8855 8.6848 14.4412 8.6848 15.1204V22.5301H4.72341V10.4893C4.72341 10.1806 4.59136 9.87187 4.39329 9.65576L12.9763 2.83266L21.5593 9.65576C21.3612 9.87187 21.2292 10.1806 21.2292 10.4893V22.5301H17.2678V15.1204C17.2678 14.4412 16.6736 13.8855 15.9473 13.8855H10.0053Z" fill="#D4AF37"/>
</svg>
