<svg width="26" height="25" viewBox="0 0 26 25" fill="none" xmlns="http://www.w3.org/2000/svg">
<path d="M11.0412 2.5568e-05C9.2982 0.000786316 7.58013 0.398257 6.02743 1.15995C4.47473 1.92164 3.13146 3.02593 2.10743 4.38255C1.08341 5.73918 0.40769 7.30962 0.135512 8.96552C-0.136667 10.6214 0.00242112 12.3158 0.541407 13.9101C1.08039 15.5044 2.00398 16.9534 3.23666 18.1386C4.46935 19.3238 5.97615 20.2117 7.63389 20.7296C9.29163 21.2475 11.0533 21.3807 12.7748 21.1183C14.4963 20.856 16.1288 20.2055 17.5389 19.2201L23.0404 24.5116C23.3655 24.8243 23.8065 25 24.2663 25C24.7261 25 25.1671 24.8243 25.4922 24.5116C25.8173 24.1989 26 23.7747 26 23.3325C26 22.8902 25.8173 22.4661 25.4922 22.1533L19.9908 16.8619C21.1899 15.2766 21.9092 13.4029 22.069 11.4485C22.2288 9.49411 21.8228 7.53532 20.896 5.78925C19.9693 4.04318 18.558 2.57803 16.8185 1.55619C15.0791 0.534344 13.0794 -0.00427628 11.0412 2.5568e-05ZM11.0412 17.916C9.54186 17.916 8.0762 17.4884 6.82956 16.6872C5.58292 15.886 4.61128 14.7472 4.03751 13.4149C3.46374 12.0826 3.31362 10.6165 3.60612 9.20214C3.89863 7.78775 4.62062 6.48855 5.6808 5.46883C6.74099 4.44911 8.09174 3.75467 9.56226 3.47333C11.0328 3.19199 12.557 3.33639 13.9422 3.88826C15.3274 4.44012 16.5113 5.37468 17.3443 6.57374C18.1773 7.7728 18.6219 9.18252 18.6219 10.6246C18.6196 12.5577 17.8202 14.4111 16.399 15.778C14.9779 17.1449 13.051 17.9138 11.0412 17.916Z" fill="#4B4A48"/>
</svg>
